<svg xmlns="http://www.w3.org/2000/svg" width="256" height="256" viewBox="0 0 100 100"><rect width="100" height="100" rx="0" fill="#101010"></rect><path fill="#fff" d="M5.90 61.39L-0.40 61.39L-0.40-0.56L5.90-0.56L5.90 61.39ZM12.20 61.39L9.05 61.39L9.05-0.56L12.20-0.56L12.20 61.39ZM31.10 61.39L21.65 61.39L21.65-0.56L31.10-0.56L31.10 61.39ZM24.38 100.55L22.80 100.55Q19.03 100.66 17.55 99.50L17.55 99.50Q15.98 98.24 15.98 95.20L15.98 95.20Q13.99 94.88 12.20 93.41L12.20 93.41Q10.42 91.94 9.37 89.32L9.37 89.32Q8.32 86.59 8.32 82.81L8.32 82.81Q8.32 78.29 9.58 75.56L9.58 75.56Q10.94 72.73 12.94 71.47L12.94 71.47Q14.93 70.31 16.93 70.31L16.93 70.31Q19.34 70.31 21.34 71.57L21.34 71.57Q23.33 72.94 24.48 75.77L24.48 75.77Q25.64 78.61 25.54 82.70L25.54 82.70Q25.54 88.16 23.75 91.21L23.75 91.21Q21.96 94.36 18.39 95.20L18.39 95.20Q18.39 96.56 19.13 97.30L19.13 97.30Q19.76 98.03 21.23 98.03L21.23 98.03L24.38 97.93L24.38 100.55ZM17.14 92.78L17.14 92.78Q18.61 92.78 19.87 91.73L19.87 91.73Q21.23 90.79 22.07 88.69L22.07 88.69Q22.91 86.69 22.91 83.44L22.91 83.44Q22.91 79.34 21.96 76.93L21.96 76.93Q21.13 74.62 19.76 73.67L19.76 73.67Q18.39 72.62 16.93 72.62L16.93 72.62Q14.09 72.62 12.52 75.46L12.52 75.46Q10.94 78.29 10.94 82.28L10.94 82.28Q10.94 87.01 12.62 89.84L12.62 89.84Q14.30 92.78 17.14 92.78ZM40.55 61.39L34.25 61.39L34.25-0.56L40.55-0.56L40.55 61.39ZM53.15 61.39L50 61.39L50-0.56L53.15-0.56L53.15 61.39ZM65.75 61.39L56.30 61.39L56.30-0.56L65.75-0.56L65.75 61.39ZM44.02 94.88L44.02 70.52L51.16 70.52Q55.36 70.52 57.24 72.41L57.24 72.41Q59.24 74.20 59.24 77.56L59.24 77.56Q59.24 79.66 57.88 81.55L57.88 81.55Q56.51 83.44 54.30 84.07L54.30 84.07L59.97 94.88L56.93 94.88L51.47 84.17L46.74 84.17L46.74 94.88L44.02 94.88ZM46.74 81.76L51.47 81.76Q53.99 81.76 55.25 80.60L55.25 80.60Q56.41 79.55 56.41 77.56L56.41 77.56Q56.41 75.56 55.25 74.30L55.25 74.30Q53.99 73.15 51.47 73.15L51.47 73.15L46.74 73.15L46.74 81.76ZM75.20 61.39L68.90 61.39L68.90-0.56L75.20-0.56L75.20 61.39ZM87.80 61.39L84.65 61.39L84.65-0.56L87.80-0.56L87.80 61.39ZM100.40 61.39L90.95 61.39L90.95-0.56L100.40-0.56L100.40 61.39ZM78.67 94.88L78.67 70.52L85.81 70.52Q90.01 70.52 91.90 72.41L91.90 72.41Q93.89 74.20 93.89 77.56L93.89 77.56Q93.89 79.66 92.53 81.55L92.53 81.55Q91.16 83.44 88.96 84.07L88.96 84.07L94.63 94.88L91.58 94.88L86.12 84.17L81.40 84.17L81.40 94.88L78.67 94.88ZM81.40 81.76L86.12 81.76Q88.64 81.76 89.90 80.60L89.90 80.60Q91.06 79.55 91.06 77.56L91.06 77.56Q91.06 75.56 89.90 74.30L89.90 74.30Q88.64 73.15 86.12 73.15L86.12 73.15L81.40 73.15L81.40 81.76Z"></path></svg>